<?xml version="1.0" encoding="utf-8"?>
<svg id="Layer_1" version="1.1" viewBox="0 310 1024 400" xml:space="preserve" xmlns="http://www.w3.org/2000/svg" xmlns:xlink="http://www.w3.org/1999/xlink">
<path d=" M591.037903,363.893585   C601.831665,370.246918 612.425781,376.224884 622.758972,382.624084   C642.432129,394.807465 664.336609,399.859711 686.766113,403.712769   C711.010864,407.877686 735.063782,413.070831 758.483276,420.731689   C784.123596,429.118988 795.543213,444.066101 797.370361,470.909271   C797.437195,471.891449 797.395386,473.046051 797.886963,473.809448   C805.138367,485.069153 802.744507,497.332153 801.032166,509.229279   C799.166077,522.194946 791.571106,527.986145 776.337952,529.178101   C771.187500,529.581055 767.386353,531.252686 763.949097,535.291138   C755.983948,544.649109 745.096008,548.640564 733.239929,550.255798   C727.162170,551.083862 721.145752,551.684937 714.906799,550.509094   C705.887756,548.809326 698.122681,545.261719 692.060974,538.309631   C690.584595,536.616455 689.176880,535.310364 686.623535,535.471252   C663.344849,536.938232 640.034302,537.338379 616.714905,537.371704   C606.050476,537.386902 595.385986,537.407471 584.721558,537.433960   C577.944885,537.450806 574.844299,534.419922 574.694824,527.420776   C574.496033,518.108765 575.239258,508.777710 573.698181,499.498322   C570.891052,482.596222 563.761414,468.025818 550.062073,457.419434   C527.774597,440.163879 497.974976,447.235779 484.286865,472.742310   C475.284668,489.517059 474.204102,507.274384 477.838745,525.608154   C478.283600,527.852112 479.419098,530.013306 478.652527,533.401245   C422.860535,531.762634 367.257935,525.274170 311.130524,522.786316   C311.751862,515.399841 312.087036,508.281921 311.675598,501.177948   C310.879730,487.435394 306.986328,474.629913 298.904480,463.386719   C289.181763,449.860931 276.011078,442.620361 259.263824,445.658691   C243.549881,448.509521 235.026505,459.970734 230.320572,474.447296   C226.923950,484.896118 226.514633,495.663361 227.991379,506.519562   C228.148285,507.673035 228.265076,508.835754 228.318634,509.997955   C228.347855,510.632324 228.205215,511.274597 228.143463,511.880096   C209.704849,513.198425 190.387817,498.172180 187.669525,480.256439   C184.591309,459.968323 186.184692,439.785828 190.118118,419.785034   C192.381760,408.274933 199.173187,400.825562 211.120224,398.517670   C230.868484,394.702759 247.264526,383.590851 264.318237,373.882538   C295.779602,355.972290 328.957642,342.404419 364.742340,336.116852   C385.031281,332.551971 405.502686,330.230499 426.158142,329.547607   C438.152527,329.151093 450.100006,329.342896 462.088043,329.499573   C507.907135,330.098389 551.087891,340.097443 591.037903,363.893585  M414.633820,366.864258   C401.239532,356.037872 385.906372,356.081329 370.029724,358.770752   C348.193878,362.469635 327.620178,369.940247 307.689331,379.361023   C297.599823,384.130035 287.584442,389.059967 278.563629,395.724670   C276.996124,396.882782 275.137238,398.330017 275.928131,400.627960   C276.640411,402.697540 278.755951,402.611328 280.613007,402.682159   C306.387543,403.665070 332.154938,404.928894 357.937836,405.574371   C385.400909,406.261841 412.878448,406.379456 440.350250,406.695618   C442.105774,406.715820 443.986908,407.266113 445.638062,406.133728   C443.648438,398.111298 426.778961,376.600891 414.633820,366.864258  M586.233948,404.653870   C592.589539,403.625549 599.230591,404.595459 605.566833,402.628632   C604.895630,399.664215 602.897705,398.873505 601.264160,397.876373   C566.876404,376.886475 531.825684,357.705719 490.341125,354.860229   C473.393311,353.697754 456.456726,353.127228 439.481995,353.340576   C438.097137,353.358002 436.749908,353.574219 436.002106,354.872040   C435.110382,356.419678 436.387665,357.359070 437.258087,358.293915   C447.467072,369.258820 457.453552,380.445862 467.998444,391.078705   C477.900696,401.063599 490.003479,406.094727 504.388458,405.778168   C531.347778,405.184937 558.316406,405.011749 586.233948,404.653870  M662.742065,455.751282   C659.388611,453.888458 655.935242,452.295502 652.244568,451.161377   C639.783142,447.332062 626.895508,445.950287 614.043701,444.360291   C608.112061,443.626373 602.176880,442.687927 596.219360,442.455200   C588.825806,442.166382 586.340332,445.939789 589.357361,452.608917   C592.991394,460.641663 599.414673,465.973480 607.641968,468.580078   C628.195068,475.091797 649.351685,474.168854 670.484558,472.862213   C674.162659,472.634796 674.927856,470.420990 673.683899,467.275482   C671.690613,462.235229 667.934326,458.801086 662.742065,455.751282  z" fill="#cc3737" opacity="1.000000" stroke="none"/>
<path d=" M712.693420,621.000000   C712.691650,611.334595 712.658997,602.169128 712.699829,593.003906   C712.728394,586.591125 713.616150,585.703430 719.857544,585.651917   C724.523254,585.613403 729.198853,585.825867 733.852905,585.589722   C738.620911,585.347839 741.557007,587.314880 743.765259,591.535828   C750.250427,603.931885 757.022583,616.178040 763.711548,628.466919   C764.574768,630.052734 765.610352,631.544800 766.593140,633.123779   C769.024414,632.193787 769.318726,629.990540 770.216980,628.339844   C776.983032,615.904358 783.740845,603.462708 790.310669,590.923096   C792.352844,587.025269 795.167847,585.379456 799.523621,585.587585   C804.345276,585.817993 809.194397,585.812927 814.016663,585.590149   C818.126282,585.400330 819.770569,587.479492 820.093933,591.161377   C820.210327,592.486267 820.197693,593.824829 820.198059,595.157166   C820.205933,623.986450 820.215942,652.815674 820.204224,681.644958   C820.200867,689.763733 818.967957,691.002808 811.037537,691.058472   C808.704651,691.074829 806.371582,691.057617 804.038574,691.048706   C795.693237,691.016785 794.776123,690.149048 794.764404,681.969666   C794.743103,667.138489 794.763062,652.307251 794.765625,637.476074   C794.765991,635.698059 794.765686,633.920044 794.765686,630.736328   C787.939148,642.543701 781.789246,653.152161 775.671265,663.779053   C773.739868,667.133789 772.035400,670.479553 767.221497,670.399109   C762.486450,670.320007 760.172180,667.563538 758.069031,663.865417   C751.673096,652.618896 745.086914,641.480591 738.127563,629.532227   C737.124084,646.957947 738.248352,663.364441 737.947998,679.765564   C737.746887,690.748718 737.466980,691.040833 726.743286,691.065186   C712.696777,691.097046 712.693420,691.097046 712.691711,676.992554   C712.689392,658.495056 712.692932,639.997498 712.693420,621.000000  z" fill="#0A0A23" opacity="1.000000" stroke="none"/>
<path d=" M633.602783,588.192383   C652.403503,598.139343 660.536621,614.091492 661.334839,634.362610   C661.656128,642.520874 661.494751,650.647766 658.889771,658.536926   C650.699463,683.341736 630.333191,694.650452 605.972412,692.791382   C578.360535,690.684265 562.447571,676.234070 558.268372,649.020447   C555.237305,629.282776 558.230774,610.347595 574.132446,595.825562   C582.834595,587.878357 593.187988,583.967224 604.974487,583.604126   C614.703491,583.304443 624.288452,583.645996 633.602783,588.192383  M584.309998,648.155945   C588.421448,662.358398 597.382080,669.072693 611.667542,668.655457   C623.447266,668.311401 632.615051,660.082031 635.487122,647.484924   C636.920105,641.199890 636.916016,634.997620 635.535828,628.709412   C632.987061,617.097046 623.072205,607.997925 612.056885,607.347900   C598.737244,606.561951 588.773254,612.809082 584.924133,624.664734   C582.511658,632.095398 582.580200,639.713257 584.309998,648.155945  z" fill="#0A0A23" opacity="1.000000" stroke="none"/>
<path d=" M508.375488,552.811340   C489.798096,540.131165 484.772858,521.895020 486.126068,501.146851   C486.614075,493.664490 488.871002,486.496338 492.444153,479.771545   C504.021271,457.983154 529.089783,453.772949 546.919006,470.702271   C563.831177,486.760742 568.566406,518.951294 556.993530,539.189697   C546.522827,557.500732 527.957092,562.810547 508.375488,552.811340  z" fill="#cc3737" opacity="1.000000" stroke="none"/>
<path d=" M468.805237,643.000000   C468.802582,626.172729 468.777710,609.845459 468.808502,593.518250   C468.821655,586.547302 469.701447,585.696106 476.493347,585.656189   C479.658722,585.637634 482.824280,585.640869 485.989777,585.646362   C493.893890,585.660217 494.317017,586.088318 494.330627,594.250122   C494.347046,604.079773 494.343109,613.909485 494.347687,623.739136   C494.348541,625.561646 494.347839,627.384216 494.347839,630.675110   C496.524017,628.001038 497.960205,626.342468 499.280701,624.596375   C507.918518,613.174927 516.606445,601.789856 525.104248,590.264832   C527.498291,587.017944 530.194885,585.373108 534.327148,585.590088   C539.477539,585.860596 544.654541,585.582520 549.817383,585.681274   C551.884583,585.720825 554.485474,584.832581 555.752991,587.169312   C557.156921,589.757751 554.889160,591.508057 553.497437,593.253296   C543.011047,606.403870 532.590027,619.610596 521.854919,632.556152   C519.142395,635.827209 519.365662,637.916870 521.863586,641.078857   C532.911438,655.063416 543.733459,669.226624 554.588806,683.362488   C555.842651,684.995239 558.028564,686.587646 556.699646,689.008240   C555.487366,691.216431 553.000610,690.872375 550.860901,691.003723   C550.528687,691.024109 550.194580,691.022278 549.861450,691.018311   C523.185486,690.700500 531.425537,694.020203 515.529358,674.147461   C508.571991,665.449707 501.896759,656.526367 493.898560,647.842407   C493.898560,657.722900 493.941498,667.603638 493.888733,677.483826   C493.805298,693.097229 493.517456,690.869263 480.140869,690.997742   C469.023590,691.104614 468.833344,690.822144 468.818207,679.486755   C468.802185,667.491150 468.808777,655.495605 468.805237,643.000000  z" fill="#0A0A23" opacity="1.000000" stroke="none"/>
<path d=" M250.685974,585.672852   C254.408813,585.772400 255.233246,587.792053 255.427414,590.654419   C256.342194,604.139587 254.894196,617.619324 255.427444,631.100586   C255.736282,638.908203 254.896057,646.730469 256.213867,654.534973   C258.140747,665.946533 266.068085,669.452942 273.913727,669.341003   C284.417450,669.191162 290.577881,662.609863 290.639282,652.155151   C290.752808,632.829834 290.674927,613.503357 290.715027,594.177490   C290.731506,586.233887 291.349030,585.660339 299.255676,585.644775   C302.587738,585.638245 305.920197,585.610229 309.251770,585.649719   C314.989716,585.717896 316.248352,586.886902 316.265930,592.786072   C316.324493,612.445007 316.394928,632.105286 316.195923,651.762451   C316.152679,656.034546 315.354431,660.382141 314.310638,664.546326   C310.211060,680.901550 298.100037,690.678955 281.240051,692.486877   C273.127930,693.356812 265.263702,692.832397 257.529266,690.746643   C241.515488,686.428406 231.031952,672.662842 230.769257,655.079041   C230.455704,634.091736 230.736511,613.096069 230.637848,592.104614   C230.615906,587.438599 232.506088,585.381348 237.225418,585.604370   C241.547592,585.808533 245.886749,585.653381 250.685974,585.672852  z" fill="#0A0A23" opacity="1.000000" stroke="none"/>
<path d=" M219.311432,667.825378   C221.217758,673.213928 223.127426,678.187988 224.793793,683.242371   C226.600204,688.721497 225.173416,690.697998 219.510345,690.999512   C219.011734,691.026123 218.511017,691.012451 218.011322,691.020203   C200.917038,691.284546 200.856842,691.306580 194.997986,675.313660   C194.069031,672.777893 193.040817,671.540527 190.107620,671.575378   C180.283127,671.692078 170.453293,671.588928 160.629349,671.385376   C157.538391,671.321411 156.080170,672.730957 155.301620,675.471924   C154.347794,678.830078 153.203201,682.133911 152.243912,685.490601   C151.178055,689.220154 148.701889,690.971802 144.909973,691.002441   C141.245285,691.031982 137.579788,691.077576 133.915619,691.034485   C126.388321,690.946045 124.974014,688.904297 127.472336,681.865601   C132.090103,668.855530 136.710617,655.846313 141.316299,642.831970   C147.421112,625.581543 153.607712,608.359009 159.538284,591.048767   C160.892929,587.094788 163.013153,585.408081 167.185104,585.587097   C172.672440,585.822510 178.187531,585.847046 183.672043,585.579712   C188.374649,585.350403 190.900726,587.113892 192.484650,591.689819   C201.243393,616.993530 210.271667,642.203918 219.311432,667.825378  M179.984940,629.336914   C178.454803,625.456116 177.936142,621.153381 174.931992,616.843506   C171.317780,628.622009 167.949387,639.599426 164.256897,651.632996   C171.125183,651.632996 177.017426,651.542542 182.905197,651.665527   C186.650864,651.743835 187.053329,650.159180 185.928818,647.024841   C183.917572,641.418884 182.154053,635.724060 179.984940,629.336914  z" fill="#0A0A23" opacity="1.000000" stroke="none"/>
<path d=" M879.004211,625.803345   C884.830994,625.804871 890.159424,625.776794 895.487366,625.814941   C899.289490,625.842163 901.396729,627.623901 901.339172,631.622437   C901.291199,634.951782 901.222961,638.287720 901.370850,641.611511   C901.580200,646.314819 899.227234,648.328857 894.764404,648.335022   C886.105896,648.346985 877.443604,648.493774 868.790466,648.280640   C864.727173,648.180542 862.948730,649.502930 863.299500,653.712524   C863.561279,656.854492 863.522644,660.047302 863.307739,663.196289   C863.064270,666.763184 864.623779,667.807434 868.003723,667.767029   C878.991760,667.635681 889.982666,667.701050 900.972168,667.747986   C908.542480,667.780334 909.330261,668.598206 909.349060,676.000610   C909.355042,678.331787 909.358032,680.662964 909.348022,682.994080   C909.317749,690.036804 908.495361,690.966614 901.243774,690.998779   C883.260986,691.078613 865.277588,691.067261 847.294556,691.036499   C840.161499,691.024292 838.896301,689.833191 838.865967,682.506653   C838.782471,662.359253 838.838989,642.211182 838.840210,622.063416   C838.840759,612.405823 838.758789,602.747253 838.870972,593.090942   C838.947144,586.532593 839.951843,585.644775 846.472351,585.641418   C865.121582,585.631775 883.770813,585.625549 902.419983,585.662109   C908.586365,585.674255 909.354736,586.436401 909.335388,592.573120   C909.278381,610.680725 911.153748,608.202087 893.717651,608.338928   C885.226135,608.405518 876.731323,608.462219 868.242676,608.290283   C864.564514,608.215698 863.208984,609.573853 863.305969,613.256409   C863.695068,628.039001 861.104309,625.525330 875.508301,625.811890   C876.506958,625.831726 877.506470,625.806458 879.004211,625.803345  z" fill="#0A0A23" opacity="1.000000" stroke="none"/>
<path d=" M287.010437,464.988342   C301.776062,480.718781 305.754852,506.531006 296.533356,525.345520   C286.410553,545.999023 262.140503,549.105469 247.140457,531.667542   C233.343796,515.628540 231.465454,487.682617 242.985840,469.853912   C253.872589,453.005798 271.129395,450.989380 287.010437,464.988342  z" fill="#cc3737" opacity="1.000000" stroke="none"/>
<path d=" M355.986023,670.995605   C355.975830,651.837524 355.830933,633.176758 356.052521,614.520386   C356.109406,609.732361 354.647980,607.973083 349.803101,608.271118   C343.994049,608.628479 338.142853,608.234802 332.316528,608.400208   C328.359222,608.512451 326.387360,607.073975 326.554718,602.913879   C326.715332,598.921753 326.689362,594.916626 326.589569,590.921082   C326.501953,587.414429 327.934937,585.646057 331.567261,585.650635   C356.390442,585.682007 381.213715,585.679993 406.036957,585.660095   C409.437988,585.657410 411.145416,587.099792 411.581482,590.621582   C412.183929,595.487427 411.358643,600.265259 411.234100,605.080566   C411.158569,608.002136 408.933807,608.357971 406.595673,608.354431   C400.431488,608.345093 394.267334,608.345886 388.103149,608.355652   C381.377625,608.366333 381.356720,608.372742 381.353729,614.932678   C381.343475,637.590210 381.357971,660.247803 381.343231,682.905334   C381.338898,689.557373 380.255463,690.704163 373.570190,690.916504   C369.909454,691.032776 366.241364,690.917358 362.576599,690.908203   C358.305786,690.897583 356.101715,688.806824 356.080597,684.488098   C356.059387,680.156860 356.019348,675.825684 355.986023,670.995605  z" fill="#0A0A23" opacity="1.000000" stroke="none"/>
<path d=" M449.335327,598.054626   C449.329865,626.208801 449.336884,653.872375 449.310028,681.535889   C449.302307,689.506836 447.957825,690.851929 440.071533,690.987976   C437.239471,691.036865 434.402283,691.083557 431.573608,690.973022   C425.512268,690.736206 423.855499,689.122131 423.820709,683.093201   C423.742859,669.595154 423.784119,656.096436 423.780640,642.597961   C423.776398,626.266479 423.750946,609.934937 423.785950,593.603516   C423.800568,586.797607 424.928314,585.696289 431.556152,585.652588   C435.055603,585.629578 438.555603,585.620667 442.054871,585.654907   C448.085724,585.713989 449.194397,586.855835 449.319702,593.064453   C449.349976,594.563843 449.331116,596.064087 449.335327,598.054626  z" fill="#0A0A23" opacity="1.000000" stroke="none"/>
<path d=" M691.398438,688.491394   C683.799683,693.552917 676.623230,693.584961 670.877197,688.839478   C665.928223,684.752258 664.124451,677.614197 666.561279,671.660339   C669.180420,665.260986 674.282227,662.027222 680.875671,661.844849   C687.080139,661.673340 692.260620,664.385193 694.907654,670.362244   C697.821594,676.941895 696.685425,682.985840 691.398438,688.491394  z" fill="#0A0A23" opacity="1.000000" stroke="none"/>
</svg>