<svg xmlns="http://www.w3.org/2000/svg" viewBox="0 0 24 24"><symbol xmlns="http://www.w3.org/2000/svg" id="a" fill="none" data-tag="symbol" viewBox="0 0 24 24"><path stroke="#1F2024" stroke-linecap="round" stroke-linejoin="round" stroke-width="1.5" d="M7 6h10m3 15h-2a1.003 1.003 0 0 1-1-1v-4a1.003 1.003 0 0 1 1-1h2a1.003 1.003 0 0 1 1 1v4a1.003 1.003 0 0 1-1 1Zm-8-3v-2.5M12 6v2.5m-1.25 2.25 2.5 2.5m0-2.5-2.5 2.5M7 18h10M6 21H4a1.003 1.003 0 0 1-1-1v-4a1.003 1.003 0 0 1 1-1h2a1.003 1.003 0 0 1 1 1v4a1.003 1.003 0 0 1-1 1ZM20 9h-2a1.003 1.003 0 0 1-1-1V4a1.003 1.003 0 0 1 1-1h2a1.003 1.003 0 0 1 1 1v4a1.003 1.003 0 0 1-1 1ZM6 9H4a1.003 1.003 0 0 1-1-1V4a1.003 1.003 0 0 1 1-1h2a1.003 1.003 0 0 1 1 1v4a1.003 1.003 0 0 1-1 1Z"/></symbol><use href="#a"/></svg>