<svg xmlns="http://www.w3.org/2000/svg" viewBox="0 0 24 24"><symbol xmlns="http://www.w3.org/2000/svg" id="N4hgCrRWGt-s9-aUCLvsB" data-tag="symbol" width="24" height="24" viewBox="0 0 24 24" fill="none"><path fill-rule="evenodd" clip-rule="evenodd" d="M7 3C7 1.89543 7.89543 1 9 1H15C16.1046 1 17 1.89543 17 3V5H21.5C22.0523 5 22.5 5.44772 22.5 6C22.5 6.55228 22.0523 7 21.5 7H20V21C20 22.1046 19.1046 23 18 23H6C4.89543 23 4 22.1046 4 21V7H2.5C1.94772 7 1.5 6.55228 1.5 6C1.5 5.44772 1.94772 5 2.5 5H7V3ZM9 5H15V3H9V5ZM6 7V21H18V7H6Z" fill="#1F2024"></path></symbol><use href="#N4hgCrRWGt-s9-aUCLvsB"></use></svg>