<svg xmlns="http://www.w3.org/2000/svg" viewBox="0 0 17 16"><symbol xmlns="http://www.w3.org/2000/svg" id="a" fill="none" data-tag="symbol" viewBox="0 0 17 16"><path fill="#fff" fill-rule="evenodd" d="M14.5 3H9.33a3.001 3.001 0 0 0-5.66 0H2.5a1 1 0 0 0 0 2h1.17a3.001 3.001 0 0 0 5.66 0h5.17a1 1 0 1 0 0-2Zm-7 1a1 1 0 1 1-2 0 1 1 0 0 1 2 0Zm-5 7a1 1 0 1 0 0 2h5.17a3.001 3.001 0 0 0 5.66 0h1.17a1 1 0 1 0 0-2h-1.17a3.001 3.001 0 0 0-5.66 0H2.5Zm8 2a1 1 0 1 0 0-2 1 1 0 0 0 0 2Z" clip-rule="evenodd"/></symbol><use href="#a"/></svg>