<svg xmlns="http://www.w3.org/2000/svg" viewBox="0 0 24 24"><symbol xmlns="http://www.w3.org/2000/svg" id="a" fill="none" data-tag="symbol" viewBox="0 0 24 24"><path stroke="#1F2024" stroke-linecap="round" stroke-linejoin="round" stroke-width="1.5" d="M6.5 7h6v4h-6V7Zm1 8h4"/><path stroke="#1F2024" stroke-linecap="round" stroke-linejoin="round" stroke-width="1.5" d="M3.5 21V5a2 2 0 0 1 2-2h8a2 2 0 0 1 2 2v16m4-16 1.414 1.414a2 2 0 0 1 .586 1.414V17.5a1.5 1.5 0 0 1-3 0V16a1 1 0 0 0-1-1h-2"/><path stroke="#1F2024" stroke-linecap="round" stroke-linejoin="round" stroke-width="1.5" d="M21.5 12h-1.867a1 1 0 0 1-.992-1.124l.25-2A1 1 0 0 1 19.883 8H21.5m-19 13h14"/></symbol><use href="#a"/></svg>