<svg xmlns="http://www.w3.org/2000/svg" viewBox="0 0 24 24"><symbol xmlns="http://www.w3.org/2000/svg" id="a" fill="none" data-tag="symbol" viewBox="0 0 24 24"><path stroke="#1F2024" stroke-linecap="round" stroke-linejoin="round" stroke-width="1.5" d="M20.21 18.86 21.64 21M4 7v10M21.414 3.586a2 2 0 1 1-2.828 2.828 2 2 0 0 1 2.828-2.828Z"/><path stroke="#1F2024" stroke-linecap="round" stroke-linejoin="round" stroke-width="1.5" d="M20 7v3a2 2 0 0 1-2 2H4m9.414-8.414a2 2 0 1 1-2.828 2.828 2 2 0 0 1 2.828-2.828m-8 0a2 2 0 1 1-2.828 2.828 2 2 0 0 1 2.828-2.828m8 14a2 2 0 1 1-2.828 2.828 2 2 0 0 1 2.828-2.828m-8 0a2 2 0 1 1-2.828 2.828 2 2 0 0 1 2.828-2.828M12 7v10m6.071 1.859h2.14a1.43 1.43 0 0 0 0-2.859h-2.14v5"/></symbol><use href="#a"/></svg>