<svg xmlns="http://www.w3.org/2000/svg" viewBox="0 0 24 24"><symbol xmlns="http://www.w3.org/2000/svg" id="a" fill="none" data-tag="symbol" viewBox="0 0 24 24"><path fill="#1F2024" fill-rule="evenodd" d="M15 10a3 3 0 1 1-6 0 3 3 0 0 1 6 0Zm-2 0a1 1 0 1 1-2 0 1 1 0 0 1 2 0Z" clip-rule="evenodd"/><path fill="#1F2024" fill-rule="evenodd" d="M22 10c0 5.523-10 14-10 14S2 15.523 2 10 6.477 0 12 0s10 4.477 10 10Zm-2 0c0 .838-.404 2.025-1.28 3.493-.848 1.421-2.008 2.893-3.214 4.249A54.182 54.182 0 0 1 12 21.312a54.168 54.168 0 0 1-3.506-3.57c-1.206-1.356-2.366-2.828-3.214-4.25C4.404 12.026 4 10.839 4 10a8 8 0 1 1 16 0Z" clip-rule="evenodd"/></symbol><use href="#a"/></svg>