<svg width="24" height="24" viewBox="0 0 24 24" fill="none" xmlns="http://www.w3.org/2000/svg"><path fill-rule="evenodd" clip-rule="evenodd" d="M24 12C24 18.6274 18.6274 24 12 24C5.37258 24 0 18.6274 0 12C0 5.37258 5.37258 0 12 0C18.6274 0 24 5.37258 24 12ZM19.0052 19.1364C17.201 20.9076 14.7281 22 12 22C9.27086 22 6.79707 20.9067 4.99269 19.1343C6.0398 17.2405 7.83238 15.816 9.97496 15.2578C10.3531 15.1593 10.6392 14.8496 10.7075 14.4648C10.7757 14.08 10.6136 13.6907 10.2924 13.4682C9.50841 12.9249 8.99834 12.0219 8.99834 11C8.99834 9.34315 10.3415 8 11.9983 8C13.6552 8 14.9983 9.34315 14.9983 11C14.9983 12.0219 14.4883 12.9249 13.7043 13.4682C13.3831 13.6907 13.221 14.08 13.2892 14.4648C13.3574 14.8496 13.6436 15.1593 14.0217 15.2578C16.1651 15.8162 17.9582 17.2416 19.0052 19.1364ZM20.3521 17.5013C19.3104 15.9219 17.8327 14.6556 16.0906 13.8733C16.6621 13.0607 16.9983 12.0697 16.9983 11C16.9983 8.23858 14.7598 6 11.9983 6C9.23692 6 6.99834 8.23858 6.99834 11C6.99834 12.0697 7.3346 13.0607 7.90607 13.8733C6.1649 14.6552 4.68788 15.9206 3.64619 17.4987C2.60564 15.9211 2 14.0313 2 12C2 6.47715 6.47715 2 12 2C17.5228 2 22 6.47715 22 12C22 14.0324 21.3937 15.9231 20.3521 17.5013Z" fill="#79797C"></path> </svg>