<svg width="56" height="56" viewBox="0 0 56 56" fill="none" xmlns="http://www.w3.org/2000/svg"><g clip-path="url(#clip0_2613_23724)"><rect width="56" height="56" rx="28" fill="white"/><rect x="0.5" y="0.5" width="55" height="55" rx="27.5" stroke="black" stroke-opacity="0.1"/><path fill-rule="evenodd" clip-rule="evenodd" d="M32.8371 26.7057C33.5681 25.4191 34 23.886 34 22.3529C34 19.3966 31.3137 17 28 17C24.6863 17 22 19.3966 22 22.3529C22 23.886 22.4319 25.4191 23.1629 26.7057L19.801 28.3521C18.0867 29.1915 17 30.9338 17 32.8425V35.9997C17 37.6565 18.3431 38.9997 20 38.9997H36C37.6569 38.9997 39 37.6565 39 35.9997V32.8425C39 30.9338 37.9133 29.1915 36.199 28.3521L32.8371 26.7057ZM32 22.3529C32 23.8215 31.4753 25.3107 30.6482 26.4029C29.8137 27.5049 28.8468 28 28 28C27.1532 28 26.1863 27.5049 25.3518 26.4029C24.5247 25.3107 24 23.8215 24 22.3529C24 20.7096 25.5702 19 28 19C30.4298 19 32 20.7096 32 22.3529ZM31.6175 28.3354C30.6117 29.3573 29.3586 30 28 30C26.6414 30 25.3883 29.3573 24.3825 28.3354L20.6806 30.1482C19.652 30.6519 19 31.6973 19 32.8425V35.9997C19 36.5519 19.4477 36.9997 20 36.9997H36C36.5523 36.9997 37 36.5519 37 35.9997V32.8425C37 31.6973 36.348 30.6519 35.3194 30.1482L31.6175 28.3354Z" fill="#1F2024"/></g><defs><clipPath id="clip0_2613_23724"><rect width="56" height="56" fill="white"/></clipPath></defs></svg>
